<?xml version="1.0" standalone="no"?>
<!DOCTYPE svg PUBLIC "-//W3C//DTD SVG 20010904//EN"
 "http://www.w3.org/TR/2001/REC-SVG-20010904/DTD/svg10.dtd">
<svg version="1.0" xmlns="http://www.w3.org/2000/svg"
 width="2141.000000pt" height="2141.000000pt" viewBox="0 0 2141.000000 2141.000000"
 preserveAspectRatio="xMidYMid meet">
<metadata>
Created by potrace 1.14, written by Peter Selinger 2001-2017
</metadata>
<g transform="translate(0.000000,2141.000000) scale(0.100000,-0.100000)"
fill="#000000" stroke="none">
<path d="M8160 21400 c-63 -3 -120 -8 -126 -12 -6 -4 -39 -12 -74 -17 -78 -13
-145 -55 -236 -149 -83 -86 -108 -129 -134 -233 -17 -65 -21 -101 -16 -159 8
-115 23 -221 35 -260 34 -110 -13 -231 -133 -341 -31 -28 -63 -65 -71 -83 -17
-35 -100 -127 -129 -143 -15 -8 -20 -27 -27 -99 -9 -105 -21 -142 -89 -268
l-51 -95 7 -69 6 -69 -36 -40 c-26 -29 -36 -50 -36 -73 0 -17 -8 -44 -19 -58
-17 -24 -82 -146 -136 -253 -16 -33 -24 -39 -51 -39 -35 0 -49 -12 -59 -53 -7
-26 -6 -27 26 -20 29 5 32 4 25 -13 -4 -10 -12 -45 -18 -76 -8 -47 -14 -57
-31 -60 -46 -6 -56 -67 -48 -283 3 -67 0 -100 -13 -129 -21 -50 -20 -62 4 -86
19 -19 20 -26 10 -98 -6 -42 -14 -101 -17 -129 -4 -35 -10 -53 -19 -53 -7 0
-29 -7 -47 -16 -38 -18 -35 -4 -23 -150 2 -29 12 -54 26 -69 l22 -23 -21 -39
c-36 -68 -84 -235 -89 -310 l-5 -73 -38 0 c-76 0 -195 -22 -248 -46 -29 -13
-55 -24 -56 -24 -1 0 -5 25 -9 55 -6 56 -12 82 -42 205 -9 36 -16 95 -15 132
2 53 -3 80 -25 130 -23 55 -27 80 -31 203 -5 133 -6 142 -34 186 l-29 45 25
125 c33 165 33 223 -1 272 -35 51 -49 97 -64 200 -9 62 -19 96 -36 120 -42 56
-64 111 -64 158 0 47 -35 125 -89 199 -57 78 -164 200 -204 233 -23 19 -79 71
-125 115 -45 45 -122 114 -170 153 -48 39 -105 92 -127 119 -22 27 -47 51 -56
55 -10 3 -34 22 -55 41 -22 19 -48 43 -59 53 -11 10 -33 25 -50 34 -16 8 -45
31 -64 51 -43 44 -49 94 -32 261 10 101 10 133 -2 201 -19 104 -68 224 -141
344 -151 249 -300 378 -519 453 -39 14 -90 32 -112 41 -80 31 -255 13 -325
-33 -14 -9 -37 -23 -52 -30 -50 -25 -198 -163 -269 -251 -17 -20 -35 -65 -49
-119 -12 -47 -30 -106 -39 -131 -37 -103 4 -457 68 -588 47 -96 165 -242 229
-284 20 -14 77 -51 126 -84 49 -32 119 -69 155 -82 188 -66 178 -64 301 -58
115 6 161 16 300 69 36 13 86 27 111 31 26 4 64 16 85 26 50 26 63 25 104 -5
19 -14 38 -25 43 -25 6 0 35 -12 66 -26 54 -26 231 -166 231 -184 0 -4 19 -32
42 -62 24 -29 56 -72 73 -95 16 -22 52 -71 78 -107 27 -36 64 -103 83 -149 25
-61 45 -92 77 -122 58 -53 67 -72 67 -145 0 -66 17 -110 52 -134 16 -11 23
-31 30 -77 12 -87 43 -149 132 -262 85 -107 87 -117 31 -156 -19 -13 -38 -33
-41 -45 -2 -12 0 -93 6 -181 21 -304 22 -350 10 -435 -13 -85 -39 -180 -61
-222 -7 -14 -11 -57 -10 -108 2 -95 -21 -174 -61 -218 -13 -13 -57 -42 -98
-63 -41 -22 -97 -55 -124 -74 -26 -19 -56 -35 -67 -35 -10 0 -21 -5 -24 -10
-4 -6 -38 -26 -77 -46 -38 -19 -97 -54 -131 -78 -34 -24 -116 -71 -182 -105
-111 -57 -162 -87 -270 -155 -78 -49 -326 -166 -375 -177 -53 -11 -142 -47
-171 -68 -15 -11 -62 -31 -105 -46 -109 -36 -158 -67 -237 -147 -88 -90 -174
-144 -327 -208 -134 -56 -131 -54 -321 -202 -70 -54 -131 -98 -136 -98 -5 0
-31 -15 -59 -32 -27 -18 -87 -53 -134 -78 -118 -63 -155 -123 -114 -185 19
-29 137 -127 179 -147 17 -9 55 -18 86 -21 52 -5 123 -32 159 -61 22 -18 89
-37 141 -41 43 -3 131 -22 296 -64 45 -12 101 -21 125 -21 23 0 93 -13 153
-29 106 -27 184 -62 305 -136 30 -19 69 -42 87 -52 99 -56 205 -179 219 -254
6 -32 41 -99 124 -234 116 -191 125 -210 145 -318 8 -45 24 -113 35 -152 26
-88 37 -153 49 -280 5 -55 21 -163 35 -240 42 -231 34 -351 -30 -491 -13 -29
-24 -55 -24 -58 0 -4 -20 -48 -44 -99 -28 -59 -48 -119 -56 -167 -15 -91 -43
-186 -77 -260 -21 -45 -27 -78 -33 -180 -5 -74 -14 -137 -23 -155 -8 -16 -27
-117 -42 -223 l-29 -194 -35 -23 c-50 -31 -67 -53 -80 -101 -9 -34 -24 -51
-81 -95 -38 -30 -127 -108 -198 -174 -70 -66 -154 -142 -186 -169 -33 -28 -66
-66 -76 -88 -13 -30 -35 -51 -92 -87 -139 -89 -236 -207 -298 -359 -17 -42
-37 -88 -44 -102 -7 -14 -19 -43 -26 -65 -21 -66 -91 -187 -157 -274 -33 -45
-46 -77 -88 -231 -32 -116 -47 -154 -105 -270 -28 -55 -50 -105 -50 -112 0
-12 -32 -62 -87 -137 -18 -24 -44 -80 -58 -126 -14 -45 -37 -97 -50 -116 -14
-18 -25 -40 -25 -49 0 -9 -25 -117 -55 -240 -31 -124 -67 -297 -80 -385 -29
-187 -86 -479 -121 -617 -38 -152 -29 -210 45 -302 37 -46 40 -89 11 -146 -11
-22 -20 -53 -20 -70 0 -36 41 -140 74 -190 17 -25 25 -55 29 -105 4 -38 22
-124 42 -190 22 -74 37 -148 40 -193 3 -62 8 -79 38 -125 19 -28 146 -234 282
-457 136 -223 260 -424 276 -446 17 -25 51 -55 84 -73 37 -21 65 -47 84 -76
16 -25 64 -75 107 -113 44 -37 97 -95 120 -127 32 -49 47 -62 78 -69 34 -9 41
-17 67 -72 34 -71 84 -120 215 -211 49 -34 152 -112 229 -173 99 -79 172 -128
250 -167 119 -60 303 -169 405 -240 47 -33 100 -57 195 -88 71 -24 141 -48
155 -53 14 -6 52 -18 85 -28 65 -19 124 -46 165 -75 27 -19 75 -33 385 -110
236 -59 256 -64 315 -88 25 -11 65 -27 90 -36 73 -28 158 -64 270 -115 114
-53 166 -73 220 -89 19 -5 61 -17 92 -26 32 -9 60 -21 63 -25 3 -5 27 -2 53 6
95 31 112 32 225 19 211 -25 240 -32 270 -70 24 -31 33 -46 57 -110 7 -18 18
-80 36 -200 3 -22 8 -67 11 -99 3 -33 11 -69 19 -80 11 -17 11 -52 4 -186 -6
-91 -14 -212 -20 -270 -5 -58 -10 -157 -10 -220 0 -63 -8 -196 -17 -295 -9
-99 -17 -265 -18 -370 -1 -139 -6 -203 -17 -240 -32 -102 -43 -234 -28 -357 7
-62 10 -138 7 -168 -3 -30 -11 -149 -18 -265 -10 -172 -10 -227 1 -302 l13
-93 667 0 666 0 28 243 c15 133 34 269 42 302 21 88 64 481 64 586 0 96 34
545 51 669 40 297 54 551 52 917 l-2 353 23 27 24 28 334 7 c183 3 414 11 513
17 696 40 874 52 900 57 17 3 77 21 135 39 58 19 157 48 220 64 112 29 235 76
410 159 47 22 158 67 247 100 95 36 182 75 211 96 60 43 92 57 208 90 102 29
292 116 320 147 10 12 68 46 128 76 60 30 121 63 135 72 14 10 46 31 71 47 70
45 168 130 234 203 171 189 276 265 391 282 82 12 162 36 189 55 36 27 142
192 162 253 13 40 15 70 10 130 -7 82 12 168 54 252 11 20 42 112 70 205 29
93 81 244 116 336 77 202 99 280 119 419 23 164 89 410 117 433 24 19 12 19
234 -3 118 -12 183 -34 256 -87 l53 -39 125 -1 c113 -1 132 -3 180 -26 30 -14
87 -33 125 -42 63 -16 175 -63 355 -150 36 -17 90 -55 120 -84 53 -51 56 -52
101 -46 63 8 85 -6 106 -68 23 -67 68 -112 126 -126 42 -11 46 -15 52 -50 10
-59 36 -94 119 -156 144 -109 246 -244 246 -326 0 -47 44 -114 120 -183 52
-46 70 -75 171 -267 61 -118 124 -233 140 -255 24 -36 111 -123 251 -255 l48
-44 24 23 25 24 20 -35 c39 -66 241 -159 343 -157 103 1 146 13 188 54 l39 38
45 -37 c25 -21 49 -35 53 -33 5 3 33 40 63 82 l55 76 81 -5 81 -5 11 37 c6 20
16 56 22 79 6 24 28 63 50 88 45 52 48 74 26 187 -16 86 -8 105 61 138 64 31
74 64 36 122 -17 25 -29 65 -38 128 -24 159 -180 602 -246 701 -49 72 -197
192 -304 246 -101 50 -143 53 -197 13 -16 -12 -30 -20 -32 -18 -1 1 -8 16 -16
33 -28 57 -98 113 -219 174 -73 37 -132 61 -152 61 -92 0 -270 -140 -374 -295
-88 -132 -116 -225 -95 -319 9 -42 8 -51 -7 -68 -26 -29 -71 -50 -92 -43 -10
3 -88 81 -174 173 -243 261 -564 575 -635 621 -116 73 -330 147 -542 187 -108
20 -128 26 -146 49 -15 19 -40 31 -95 44 -41 10 -114 30 -163 45 -57 17 -112
26 -156 26 -56 0 -70 4 -86 21 -31 35 -93 56 -184 63 -47 4 -102 12 -122 17
-34 9 -39 14 -53 62 -25 85 -28 119 -16 228 9 87 9 114 -4 162 -8 32 -15 84
-15 115 0 32 -13 110 -29 174 -33 139 -42 123 104 196 55 27 158 88 228 136
94 63 147 91 200 107 40 12 121 44 181 71 67 31 145 57 205 69 98 21 153 45
351 151 132 71 278 116 422 128 118 11 144 18 193 55 32 25 35 26 101 13 l67
-12 26 31 c25 29 30 30 124 36 54 4 150 17 213 29 104 20 118 21 142 7 45 -25
50 -58 17 -130 -23 -52 -27 -71 -22 -119 2 -31 14 -75 25 -97 23 -44 75 -93
99 -93 33 0 70 -56 98 -146 18 -60 36 -99 56 -120 17 -17 33 -44 38 -60 6 -22
23 -37 73 -65 36 -20 80 -47 99 -62 57 -43 267 -102 339 -95 14 2 57 -1 96 -5
75 -9 113 1 143 37 12 14 17 13 43 -9 49 -42 78 -34 222 56 71 44 155 93 186
109 57 29 100 70 100 96 0 7 15 20 34 29 43 20 54 37 111 165 24 56 65 129 90
162 38 51 45 67 45 105 0 29 -8 58 -21 79 -18 30 -19 35 -5 56 32 51 38 103
22 216 -8 59 -22 179 -31 266 -9 88 -18 163 -21 167 -2 4 1 9 7 11 18 6 -124
268 -145 268 -5 0 -34 28 -65 62 -121 133 -227 174 -732 282 -246 53 -310 46
-359 -37 -18 -29 -33 -38 -118 -66 -95 -31 -99 -34 -116 -72 -19 -43 -65 -104
-134 -177 -36 -38 -46 -57 -54 -104 -10 -55 -12 -58 -39 -58 -37 0 -43 -16
-29 -69 11 -40 10 -43 -18 -69 -16 -15 -39 -46 -50 -68 -18 -35 -32 -46 -109
-81 -139 -65 -223 -84 -418 -93 -185 -9 -200 -13 -317 -78 -43 -24 -104 -49
-135 -55 -32 -7 -76 -24 -98 -39 -46 -31 -86 -46 -207 -82 -47 -14 -108 -41
-135 -59 -46 -31 -55 -33 -111 -29 -56 4 -69 1 -159 -42 -76 -35 -114 -47
-171 -52 -83 -8 -116 -27 -138 -81 -14 -32 -16 -33 -72 -33 -78 -1 -118 -22
-242 -127 -211 -180 -227 -185 -314 -103 -56 53 -109 140 -121 200 -11 54 -62
144 -118 208 -73 82 -105 137 -118 201 -13 63 -89 219 -130 266 -15 17 -30 47
-34 68 -11 57 -60 122 -125 166 -33 21 -63 41 -68 43 -9 3 -92 155 -92 167 0
12 145 41 206 41 48 0 61 -4 89 -29 27 -23 52 -32 130 -46 125 -23 343 -16
455 14 173 46 226 74 375 202 116 99 217 172 256 184 10 4 19 11 19 17 0 5 21
40 46 78 25 37 51 91 59 120 16 62 39 98 68 109 21 8 121 112 139 144 4 9 12
42 17 74 5 32 25 103 45 158 20 57 51 184 72 295 33 173 37 213 37 350 0 146
-3 168 -46 374 -26 121 -47 231 -47 244 0 40 90 179 148 229 29 25 61 62 72
83 10 21 31 102 46 181 32 170 36 337 10 494 -34 206 -83 312 -201 431 -138
140 -276 199 -500 215 -71 5 -141 11 -155 15 -14 3 -36 1 -49 -4 -20 -7 -29
-4 -47 17 -21 25 -26 26 -111 23 -76 -2 -98 -7 -161 -37 -66 -31 -79 -34 -131
-29 -65 7 -97 -5 -171 -66 -25 -21 -59 -45 -77 -54 -22 -11 -33 -25 -38 -48
-4 -18 -28 -71 -53 -119 -65 -125 -66 -168 -12 -480 42 -242 42 -244 75 -274
31 -28 32 -32 19 -51 -13 -20 -12 -23 23 -47 21 -15 59 -48 85 -74 46 -47 148
-189 148 -205 0 -13 135 -139 177 -164 90 -54 112 -62 203 -74 52 -6 114 -16
137 -21 23 -5 68 -9 100 -9 32 0 96 -3 142 -7 78 -6 86 -8 121 -42 l37 -36 13
-229 c13 -245 13 -245 -35 -246 -11 0 -27 -5 -35 -10 -13 -9 -13 -12 3 -21 37
-22 48 -64 45 -174 -3 -103 -3 -105 -29 -116 -15 -6 -37 -21 -49 -34 -19 -21
-22 -31 -16 -67 21 -134 24 -119 -45 -234 -77 -128 -126 -186 -196 -231 -58
-37 -77 -64 -68 -93 10 -33 -37 -153 -79 -198 -45 -50 -216 -151 -256 -152 -9
0 -47 -13 -86 -30 -39 -16 -109 -36 -156 -44 -47 -8 -132 -25 -188 -36 -113
-23 -138 -20 -191 24 -17 15 -49 28 -77 32 -52 7 -102 29 -102 44 0 6 -28 8
-72 5 -131 -10 -156 -16 -195 -42 -37 -25 -38 -25 -85 -10 l-48 15 -42 -59
c-23 -33 -45 -58 -48 -57 -4 2 -32 32 -61 68 -65 79 -158 165 -191 175 -12 5
-54 29 -93 55 -66 45 -148 80 -186 80 -9 0 -51 16 -93 35 -43 19 -83 35 -91
35 -22 0 -283 108 -364 151 -42 22 -88 39 -106 39 -18 0 -52 7 -75 15 -23 8
-70 15 -104 15 -41 0 -79 8 -116 24 -255 109 -286 119 -339 107 -25 -6 -62
-11 -81 -10 -19 1 -57 -9 -84 -21 -66 -30 -147 -25 -234 15 l-64 28 -69 -18
c-87 -22 -168 -16 -274 20 l-76 27 -47 -31 -46 -30 -38 35 c-21 19 -39 34 -41
35 -1 1 -74 4 -162 8 l-160 6 -70 39 c-41 23 -109 48 -165 62 -217 52 -294 90
-395 195 -62 64 -105 89 -151 89 -49 0 -291 267 -340 375 -12 28 -25 77 -29
109 -4 37 -16 73 -31 96 -38 57 -62 128 -95 283 -51 244 -52 252 -39 471 13
233 15 237 117 366 57 73 67 91 69 128 2 53 27 89 82 120 58 33 68 55 47 103
-14 30 -16 50 -10 91 18 121 12 178 -24 253 -53 112 -53 113 -16 222 26 77 37
133 49 258 9 88 22 192 27 230 6 39 15 187 19 330 5 143 13 337 20 430 29 438
5 705 -96 1060 -34 119 -101 245 -180 336 -35 41 -92 117 -127 169 -36 52 -75
105 -88 117 -43 39 -141 92 -238 129 -186 71 -235 122 -235 245 0 37 5 73 11
80 6 8 27 94 47 191 31 152 42 189 83 268 38 74 54 95 87 115 30 17 47 38 64
75 14 31 62 91 124 157 126 135 147 162 162 215 10 34 28 55 85 104 70 59 75
61 118 56 45 -5 47 -3 93 45 40 44 57 54 130 78 47 14 114 42 150 61 68 36 86
41 92 24 5 -17 215 18 283 47 33 14 72 27 86 30 36 7 69 -13 69 -40 0 -61 78
-97 210 -97 43 0 92 -5 109 -11 31 -11 32 -13 24 -48 -18 -82 4 -215 45 -263
9 -11 15 -41 16 -82 1 -57 8 -77 61 -184 53 -106 64 -122 95 -134 31 -13 37
-22 58 -86 19 -59 31 -78 73 -116 77 -70 162 -121 242 -146 39 -13 86 -30 102
-38 21 -9 48 -13 80 -9 28 3 84 7 126 9 50 2 85 9 102 21 18 12 47 17 92 17
58 0 76 5 138 38 39 20 93 58 121 83 28 25 69 58 91 73 88 58 160 114 178 138
10 14 21 45 23 69 3 24 9 53 14 64 5 11 19 61 31 110 12 50 26 99 31 109 6 11
21 63 35 115 30 121 25 192 -24 311 -19 47 -54 141 -78 210 -39 111 -52 135
-116 218 -40 51 -93 109 -118 130 -25 20 -48 39 -51 42 -3 3 -21 13 -40 23
-19 10 -62 34 -95 53 -33 20 -82 40 -110 44 -50 8 -84 22 -158 61 -50 27 -124
49 -164 49 -17 0 -34 4 -37 9 -3 4 -32 11 -63 15 -58 6 -79 1 -166 -38 -21 -9
-52 -19 -70 -23 -18 -3 -45 -17 -60 -32 -40 -37 -108 -134 -151 -216 -91 -173
-94 -176 -186 -222 -77 -38 -92 -42 -160 -42 -52 0 -92 6 -130 20 -182 69
-193 71 -256 66 -34 -3 -85 -15 -114 -26 l-53 -20 -34 29 c-43 38 -87 39 -134
4 -28 -21 -41 -24 -74 -19 -35 5 -53 -1 -120 -35 -48 -24 -94 -40 -115 -40
-27 0 -44 -9 -80 -43 -25 -24 -110 -85 -190 -135 -214 -135 -276 -185 -322
-261 -21 -36 -38 -74 -38 -85 0 -12 -9 -27 -19 -33 -11 -7 -27 -28 -36 -47 -9
-19 -25 -36 -36 -39 -11 -3 -22 -17 -25 -35 -4 -18 -29 -53 -65 -88 -32 -32
-59 -63 -59 -69 0 -6 -11 -27 -24 -46 -14 -20 -28 -48 -31 -62 -4 -15 -13 -31
-21 -38 -8 -6 -14 -20 -14 -30 0 -10 -13 -25 -28 -33 -43 -22 -57 -43 -42 -60
9 -12 8 -22 -3 -48 -8 -18 -17 -53 -20 -77 -4 -31 -15 -53 -38 -77 -31 -32
-32 -35 -21 -72 10 -33 9 -49 -5 -93 -43 -136 -66 -146 -215 -99 -148 46 -561
200 -574 214 -6 6 -18 32 -28 57 -21 58 -47 82 -88 81 -36 -1 -49 12 -80 78
-18 38 -24 79 -34 250 -7 113 -13 237 -13 277 -1 70 -1 71 28 81 26 9 29 14
22 38 -7 26 9 115 29 159 14 32 20 88 29 265 l8 165 55 110 c30 61 58 122 61
136 4 15 16 29 26 32 32 8 61 66 61 120 0 28 8 64 20 87 19 38 36 90 65 210
18 72 54 160 76 185 24 27 39 69 39 108 0 43 46 179 71 211 24 31 73 46 114
34 16 -4 49 -8 72 -8 34 0 50 -7 88 -40 26 -23 67 -46 97 -55 28 -8 58 -21 67
-29 16 -14 90 -55 286 -156 95 -49 103 -52 160 -47 37 3 85 16 125 34 74 34
220 141 251 185 12 16 53 50 92 77 125 84 158 147 158 296 1 170 -32 592 -47
616 -3 5 -9 39 -14 77 -18 147 -27 164 -161 298 -134 134 -108 120 -289 159
-76 17 -208 22 -370 15z"/>
<path d="M9202 13845 c0 -16 2 -22 5 -12 2 9 2 23 0 30 -3 6 -5 -1 -5 -18z"/>
</g>
</svg>
